<?xml version="1.0" encoding="utf-8"?>
<!-- Generator: Adobe Illustrator 21.0.0, SVG Export Plug-In . SVG Version: 6.00 Build 0)  -->
<svg version="1.1" id="Layer_1" xmlns="http://www.w3.org/2000/svg" xmlns:xlink="http://www.w3.org/1999/xlink" x="0px" y="0px"
	 viewBox="0 0 16 16" style="enable-background:new 0 0 16 16;" xml:space="preserve">
<style type="text/css">
	.st0{fill:#3584FA;}
</style>
<path class="st0" d="M14.3,13.3H1.7c-0.9,0-1.7-0.7-1.7-1.7V4.3c0-0.9,0.7-1.7,1.7-1.7h12.7c0.9,0,1.7,0.7,1.7,1.7v7.3
	C16,12.6,15.3,13.3,14.3,13.3z M1.7,3.3c-0.6,0-1,0.4-1,1v7.3c0,0.6,0.4,1,1,1h12.7c0.6,0,1-0.4,1-1V4.3c0-0.6-0.4-1-1-1H1.7z"/>
<path class="st0" d="M8,8.7c-0.4,0-0.7-0.1-1.1-0.3L1.5,4.6C1.3,4.5,1.3,4.3,1.4,4.1C1.5,4,1.7,4,1.9,4.1l5.5,3.7
	c0.4,0.3,0.9,0.3,1.4,0l5.5-3.7C14.3,4,14.5,4,14.6,4.1c0.1,0.2,0.1,0.4-0.1,0.5L9.1,8.3C8.7,8.6,8.4,8.7,8,8.7z"/>
<path class="st0" d="M1.7,12c-0.1,0-0.2,0-0.3-0.1c-0.1-0.1-0.1-0.4,0-0.5l4-3.3C5.6,8,5.8,8,5.9,8.1C6,8.3,6,8.5,5.9,8.6l-4,3.3
	C1.8,12,1.7,12,1.7,12z"/>
<path class="st0" d="M14.3,12c-0.1,0-0.2,0-0.2-0.1l-4-3.3c-0.1-0.1-0.2-0.3,0-0.5c0.1-0.1,0.3-0.2,0.5,0l4,3.3
	c0.1,0.1,0.2,0.3,0,0.5C14.5,12,14.4,12,14.3,12z"/>
</svg>
