<?xml version="1.0" encoding="utf-8"?>
<!-- Generator: Adobe Illustrator 21.0.0, SVG Export Plug-In . SVG Version: 6.00 Build 0)  -->
<svg version="1.1" id="Layer_1" xmlns="http://www.w3.org/2000/svg" xmlns:xlink="http://www.w3.org/1999/xlink" x="0px" y="0px"
	 viewBox="0 0 21 21" style="enable-background:new 0 0 21 21;" xml:space="preserve">
<style type="text/css">
	.st0{fill:#FFFFFF;}
</style>
<path class="st0" d="M16,14.6l4.3,4.3l-1.4,1.4L14.6,16C13,17.3,11,18,9,18c-5,0-9-4-9-9s4-9,9-9s9,4,9,9C18,11,17.3,13,16,14.6z
	 M14,13.9c1.3-1.3,2-3.1,2-4.9c0-3.9-3.1-7-7-7C5.1,2,2,5.1,2,9c0,3.9,3.1,7,7,7c1.8,0,3.6-0.7,4.9-2L14,13.9z"/>
</svg>
