<?xml version="1.0" encoding="utf-8"?>
<!-- Generator: Adobe Illustrator 21.0.0, SVG Export Plug-In . SVG Version: 6.00 Build 0)  -->
<svg version="1.1" id="Layer_1" xmlns="http://www.w3.org/2000/svg" xmlns:xlink="http://www.w3.org/1999/xlink" x="0px" y="0px"
	 viewBox="0 0 16 16" style="enable-background:new 0 0 16 16;" xml:space="preserve">
<style type="text/css">
	.st0{fill:#3584FA;}
</style>
<path class="st0" d="M8.6,0c-4.4,0-8,3.6-8,8c0,4.4,3.6,8,8,8c1.8,0,3.5-0.6,4.9-1.7c0.6-0.5,0.6-1.2,0.3-1.7
	c-0.2-0.3-0.4-0.5-0.7-0.6l0.1-0.1c0.2-0.2,0.3-0.5,0.2-0.8c0-0.3-0.2-0.6-0.5-0.7l-1.8-1c-0.4-0.2-0.9-0.2-1.3,0.2L9.6,10
	c-0.1,0.1-0.2,0.1-0.3,0.1c-0.1,0-0.2-0.1-0.3-0.1L6.9,6.7c-0.1-0.1-0.1-0.2,0-0.3c0-0.1,0.1-0.2,0.2-0.2l0.6-0.3
	c0.4-0.2,0.7-0.7,0.6-1.1l-0.5-2C7.7,2.5,7.5,2.3,7.2,2.1C6.9,2,6.6,2,6.4,2.1L5.8,2.4C5,2.7,4.4,3.5,4.2,4.3L4.1,4.7
	C3.9,5.4,4,6.1,4.3,6.7l0.5,1.1c0.7,1.6,1.7,3,2.9,4.2l0.4,0.4c0.6,0.6,1.4,0.9,2.3,1c0,0,0.1,0,0.1,0c0.7,0,1.4-0.2,2-0.7
	c0,0,0,0,0,0c0.5-0.1,0.7,0.2,0.7,0.3c0.1,0.2,0.1,0.6-0.1,0.9c-1.3,1-2.8,1.5-4.5,1.5c-4,0-7.3-3.3-7.3-7.3c0-4,3.3-7.3,7.3-7.3
	C12.7,0.7,16,4,16,8c0,0.2,0.1,0.3,0.3,0.3s0.3-0.1,0.3-0.3C16.6,3.6,13.1,0,8.6,0z M12.7,11.4l-0.3,0.3c-0.5,0.6-1.3,0.9-2.1,0.9
	c-0.7,0-1.3-0.3-1.8-0.8l-0.4-0.4C7,10.3,6,9,5.4,7.5L4.9,6.4C4.6,6,4.6,5.4,4.7,4.9l0.1-0.4C5,3.8,5.5,3.3,6.1,3l0.5-0.3
	c0,0,0.1,0,0.1,0c0.1,0,0.1,0,0.1,0c0.1,0,0.2,0.1,0.2,0.2l0.5,2c0,0.2,0,0.3-0.2,0.4L6.8,5.6C6.5,5.7,6.3,5.9,6.2,6.2
	c-0.1,0.3,0,0.6,0.1,0.8l2.1,3.2c0.2,0.3,0.5,0.4,0.8,0.4c0.3,0,0.6-0.1,0.8-0.3l0.4-0.4c0.1-0.1,0.3-0.1,0.4-0.1l1.8,1
	c0.1,0.1,0.1,0.1,0.2,0.2C12.8,11.3,12.8,11.4,12.7,11.4z"/>
</svg>
